<svg width="309" height="226" viewBox="0 0 309 226" fill="none" xmlns="http://www.w3.org/2000/svg">
<g clip-path="url(#clip0_787_8714)">
<path d="M179.992 40.3791C185.783 40.3791 190.478 35.6844 190.478 29.8931C190.478 24.1019 185.783 19.4072 179.992 19.4072C174.201 19.4072 169.506 24.1019 169.506 29.8931C169.506 35.6844 174.201 40.3791 179.992 40.3791Z" fill="#F2F2F2"/>
<path d="M261.335 196.001C276.921 184.13 284.365 164.181 279.705 145.151C279.589 144.678 279.467 144.206 279.338 143.736C276.248 132.44 268.604 121.704 257.463 118.095C248.109 115.064 237.898 117.394 228.139 116.189C208.982 113.824 194.13 98.3229 183.679 82.0936C173.228 65.8643 165.197 47.6979 151.31 34.2901C128.421 12.1896 91.0821 7.4314 62.7023 21.8171C34.3225 36.2029 16.2448 68.119 17.0158 99.9273C17.7868 131.736 36.67 162.147 64.0931 178.282C74.1672 184.209 85.8189 188.408 97.4147 186.939C107.476 185.664 116.618 180.257 126.633 178.652C142.377 176.129 158.021 183.248 171.639 191.543C185.257 199.838 198.411 209.671 213.886 213.517C228.912 217.251 247.528 206.518 261.335 196.001Z" fill="#F2F2F2"/>
<path d="M238.941 22.485C238.599 22.2573 238.254 22.0413 237.912 21.8213C228.036 15.5047 217.45 10.3732 206.373 6.53275L203.804 41.964H187.522V1.36063C186.497 1.14856 185.464 0.948271 184.432 0.759766V41.964H165.082C154.43 41.964 144.214 37.7325 136.682 30.2004C129.15 22.6683 124.919 12.4525 124.919 1.80052C123.882 2.02437 122.853 2.26389 121.824 2.51916V41.964H106.064L103.618 8.17825C92.2345 12.5438 81.4278 18.2848 71.4381 25.2734C71.2653 25.3912 71.0925 25.5129 70.9237 25.6307C70.0557 26.2395 69.1996 26.86 68.3474 27.4883V162.659H114.794L113.974 151.289L109.457 88.8665H200.407L195.891 151.289L195.07 162.659H241.003V23.8517C240.32 23.3883 239.632 22.9328 238.941 22.485ZM121.824 78.5576H108.711L106.288 45.0586H121.824V78.5576ZM184.432 78.5576H162.408V77.8939C162.408 77.5749 162.345 77.2589 162.223 76.9642C162.101 76.6695 161.921 76.4018 161.696 76.1763C161.47 75.9509 161.202 75.7722 160.907 75.6505C160.612 75.5288 160.296 75.4664 159.977 75.4669H150.402C150.084 75.4668 149.768 75.5295 149.473 75.6514C149.179 75.7733 148.911 75.9521 148.686 76.1775C148.461 76.4029 148.282 76.6705 148.16 76.965C148.038 77.2595 147.975 77.5752 147.975 77.8939V78.5576H124.919V45.0586H184.432V78.5576ZM187.522 78.5576V45.0586H203.581L201.158 78.5576H187.522Z" fill="#3F3D56"/>
<path d="M-6.10352e-05 171.315C3.4116 175.358 7.10169 179.157 11.0432 182.685L297.957 183.077C301.898 179.55 305.588 175.751 309 171.708L-6.10352e-05 171.315Z" fill="#3F3D56"/>
<path d="M194.565 134.91V168.567C194.566 168.996 194.736 169.408 195.039 169.711C195.343 170.014 195.754 170.185 196.183 170.185H246.06C246.489 170.185 246.9 170.014 247.204 169.711C247.507 169.408 247.677 168.996 247.678 168.567V134.91C247.677 134.481 247.506 134.071 247.203 133.768C246.9 133.465 246.489 133.294 246.06 133.294H196.183C195.754 133.294 195.344 133.465 195.04 133.768C194.737 134.071 194.566 134.481 194.565 134.91Z" fill="#3F3D56"/>
<path d="M195.735 135.329V168.153C195.736 168.382 195.827 168.602 195.989 168.764C196.151 168.926 196.371 169.017 196.6 169.017H245.645C245.874 169.017 246.094 168.926 246.256 168.764C246.418 168.602 246.509 168.382 246.509 168.153V135.329C246.509 135.1 246.418 134.88 246.256 134.717C246.094 134.555 245.874 134.463 245.645 134.463H196.6C196.37 134.463 196.151 134.555 195.988 134.717C195.826 134.88 195.735 135.1 195.735 135.329Z" fill="#04A7EC"/>
<path d="M193.522 175.131C193.614 175.246 193.73 175.338 193.862 175.402C193.994 175.465 194.139 175.497 194.285 175.497H247.692C247.838 175.496 247.982 175.464 248.114 175.401C248.246 175.338 248.362 175.246 248.454 175.133C248.546 175.02 248.612 174.887 248.646 174.745C248.68 174.603 248.683 174.455 248.653 174.312L247.824 170.374C247.789 170.214 247.715 170.064 247.609 169.94C247.502 169.815 247.365 169.719 247.212 169.661C247.101 169.617 246.982 169.595 246.863 169.595H195.111C194.992 169.595 194.873 169.617 194.762 169.661C194.609 169.719 194.473 169.815 194.366 169.94C194.259 170.064 194.185 170.214 194.15 170.374L193.321 174.312C193.292 174.455 193.295 174.603 193.329 174.745C193.364 174.886 193.43 175.018 193.522 175.131Z" fill="#2F2E41"/>
<path d="M245.031 171.291H246.292C246.398 171.291 246.484 171.205 246.484 171.099V170.496C246.484 170.39 246.398 170.304 246.292 170.304H245.031C244.925 170.304 244.839 170.39 244.839 170.496V171.099C244.839 171.205 244.925 171.291 245.031 171.291Z" fill="#3F3D56"/>
<path d="M241.741 171.291H243.002C243.108 171.291 243.194 171.205 243.194 171.099V170.496C243.194 170.39 243.108 170.304 243.002 170.304H241.741C241.635 170.304 241.549 170.39 241.549 170.496V171.099C241.549 171.205 241.635 171.291 241.741 171.291Z" fill="#3F3D56"/>
<path d="M238.451 171.291H239.712C239.818 171.291 239.904 171.205 239.904 171.099V170.496C239.904 170.39 239.818 170.304 239.712 170.304H238.451C238.345 170.304 238.259 170.39 238.259 170.496V171.099C238.259 171.205 238.345 171.291 238.451 171.291Z" fill="#3F3D56"/>
<path d="M235.161 171.291H236.423C236.529 171.291 236.614 171.205 236.614 171.099V170.496C236.614 170.39 236.529 170.304 236.423 170.304H235.161C235.055 170.304 234.969 170.39 234.969 170.496V171.099C234.969 171.205 235.055 171.291 235.161 171.291Z" fill="#3F3D56"/>
<path d="M231.871 171.291H233.133C233.239 171.291 233.325 171.205 233.325 171.099V170.496C233.325 170.39 233.239 170.304 233.133 170.304H231.871C231.766 170.304 231.68 170.39 231.68 170.496V171.099C231.68 171.205 231.766 171.291 231.871 171.291Z" fill="#3F3D56"/>
<path d="M228.582 171.291H229.843C229.949 171.291 230.035 171.205 230.035 171.099V170.496C230.035 170.39 229.949 170.304 229.843 170.304H228.582C228.476 170.304 228.39 170.39 228.39 170.496V171.099C228.39 171.205 228.476 171.291 228.582 171.291Z" fill="#3F3D56"/>
<path d="M225.292 171.291H226.553C226.659 171.291 226.745 171.205 226.745 171.099V170.496C226.745 170.39 226.659 170.304 226.553 170.304H225.292C225.186 170.304 225.1 170.39 225.1 170.496V171.099C225.1 171.205 225.186 171.291 225.292 171.291Z" fill="#3F3D56"/>
<path d="M222.002 171.291H223.263C223.369 171.291 223.455 171.205 223.455 171.099V170.496C223.455 170.39 223.369 170.304 223.263 170.304H222.002C221.896 170.304 221.81 170.39 221.81 170.496V171.099C221.81 171.205 221.896 171.291 222.002 171.291Z" fill="#3F3D56"/>
<path d="M218.712 171.291H219.974C220.08 171.291 220.165 171.205 220.165 171.099V170.496C220.165 170.39 220.08 170.304 219.974 170.304H218.712C218.606 170.304 218.52 170.39 218.52 170.496V171.099C218.52 171.205 218.606 171.291 218.712 171.291Z" fill="#3F3D56"/>
<path d="M215.422 171.291H216.684C216.79 171.291 216.876 171.205 216.876 171.099V170.496C216.876 170.39 216.79 170.304 216.684 170.304H215.422C215.316 170.304 215.231 170.39 215.231 170.496V171.099C215.231 171.205 215.316 171.291 215.422 171.291Z" fill="#3F3D56"/>
<path d="M212.133 171.291H213.394C213.5 171.291 213.586 171.205 213.586 171.099V170.496C213.586 170.39 213.5 170.304 213.394 170.304H212.133C212.027 170.304 211.941 170.39 211.941 170.496V171.099C211.941 171.205 212.027 171.291 212.133 171.291Z" fill="#3F3D56"/>
<path d="M208.843 171.291H210.104C210.21 171.291 210.296 171.205 210.296 171.099V170.496C210.296 170.39 210.21 170.304 210.104 170.304H208.843C208.737 170.304 208.651 170.39 208.651 170.496V171.099C208.651 171.205 208.737 171.291 208.843 171.291Z" fill="#3F3D56"/>
<path d="M205.553 171.291H206.814C206.92 171.291 207.006 171.205 207.006 171.099V170.496C207.006 170.39 206.92 170.304 206.814 170.304H205.553C205.447 170.304 205.361 170.39 205.361 170.496V171.099C205.361 171.205 205.447 171.291 205.553 171.291Z" fill="#3F3D56"/>
<path d="M202.263 171.291H203.525C203.63 171.291 203.716 171.205 203.716 171.099V170.496C203.716 170.39 203.63 170.304 203.525 170.304H202.263C202.157 170.304 202.071 170.39 202.071 170.496V171.099C202.071 171.205 202.157 171.291 202.263 171.291Z" fill="#3F3D56"/>
<path d="M198.973 171.291H200.235C200.341 171.291 200.426 171.205 200.426 171.099V170.496C200.426 170.39 200.341 170.304 200.235 170.304H198.973C198.867 170.304 198.782 170.39 198.782 170.496V171.099C198.782 171.205 198.867 171.291 198.973 171.291Z" fill="#3F3D56"/>
<path d="M195.683 171.291H196.945C197.051 171.291 197.137 171.205 197.137 171.099V170.496C197.137 170.39 197.051 170.304 196.945 170.304H195.683C195.578 170.304 195.492 170.39 195.492 170.496V171.099C195.492 171.205 195.578 171.291 195.683 171.291Z" fill="#3F3D56"/>
<path d="M245.069 172.937H246.331C246.437 172.937 246.523 172.851 246.523 172.745V172.141C246.523 172.035 246.437 171.95 246.331 171.95H245.069C244.964 171.95 244.878 172.035 244.878 172.141V172.745C244.878 172.851 244.964 172.937 245.069 172.937Z" fill="#3F3D56"/>
<path d="M241.78 172.937H243.041C243.147 172.937 243.233 172.851 243.233 172.745V172.141C243.233 172.035 243.147 171.95 243.041 171.95H241.78C241.674 171.95 241.588 172.035 241.588 172.141V172.745C241.588 172.851 241.674 172.937 241.78 172.937Z" fill="#3F3D56"/>
<path d="M238.49 172.937H239.751C239.857 172.937 239.943 172.851 239.943 172.745V172.141C239.943 172.035 239.857 171.95 239.751 171.95H238.49C238.384 171.95 238.298 172.035 238.298 172.141V172.745C238.298 172.851 238.384 172.937 238.49 172.937Z" fill="#3F3D56"/>
<path d="M235.2 172.937H236.462C236.567 172.937 236.653 172.851 236.653 172.745V172.141C236.653 172.035 236.567 171.95 236.462 171.95H235.2C235.094 171.95 235.008 172.035 235.008 172.141V172.745C235.008 172.851 235.094 172.937 235.2 172.937Z" fill="#3F3D56"/>
<path d="M231.91 172.937H233.172C233.278 172.937 233.363 172.851 233.363 172.745V172.141C233.363 172.035 233.278 171.95 233.172 171.95H231.91C231.804 171.95 231.719 172.035 231.719 172.141V172.745C231.719 172.851 231.804 172.937 231.91 172.937Z" fill="#3F3D56"/>
<path d="M228.62 172.937H229.882C229.988 172.937 230.074 172.851 230.074 172.745V172.141C230.074 172.035 229.988 171.95 229.882 171.95H228.62C228.515 171.95 228.429 172.035 228.429 172.141V172.745C228.429 172.851 228.515 172.937 228.62 172.937Z" fill="#3F3D56"/>
<path d="M225.331 172.937H226.592C226.698 172.937 226.784 172.851 226.784 172.745V172.141C226.784 172.035 226.698 171.95 226.592 171.95H225.331C225.225 171.95 225.139 172.035 225.139 172.141V172.745C225.139 172.851 225.225 172.937 225.331 172.937Z" fill="#3F3D56"/>
<path d="M222.041 172.937H223.302C223.408 172.937 223.494 172.851 223.494 172.745V172.141C223.494 172.035 223.408 171.95 223.302 171.95H222.041C221.935 171.95 221.849 172.035 221.849 172.141V172.745C221.849 172.851 221.935 172.937 222.041 172.937Z" fill="#3F3D56"/>
<path d="M218.751 172.937H220.012C220.118 172.937 220.204 172.851 220.204 172.745V172.141C220.204 172.035 220.118 171.95 220.012 171.95H218.751C218.645 171.95 218.559 172.035 218.559 172.141V172.745C218.559 172.851 218.645 172.937 218.751 172.937Z" fill="#3F3D56"/>
<path d="M215.461 172.937H216.723C216.829 172.937 216.914 172.851 216.914 172.745V172.141C216.914 172.035 216.829 171.95 216.723 171.95H215.461C215.355 171.95 215.269 172.035 215.269 172.141V172.745C215.269 172.851 215.355 172.937 215.461 172.937Z" fill="#3F3D56"/>
<path d="M212.171 172.937H213.433C213.539 172.937 213.625 172.851 213.625 172.745V172.141C213.625 172.035 213.539 171.95 213.433 171.95H212.171C212.066 171.95 211.98 172.035 211.98 172.141V172.745C211.98 172.851 212.066 172.937 212.171 172.937Z" fill="#3F3D56"/>
<path d="M208.882 172.937H210.143C210.249 172.937 210.335 172.851 210.335 172.745V172.141C210.335 172.035 210.249 171.95 210.143 171.95H208.882C208.776 171.95 208.69 172.035 208.69 172.141V172.745C208.69 172.851 208.776 172.937 208.882 172.937Z" fill="#3F3D56"/>
<path d="M205.592 172.937H206.853C206.959 172.937 207.045 172.851 207.045 172.745V172.141C207.045 172.035 206.959 171.95 206.853 171.95H205.592C205.486 171.95 205.4 172.035 205.4 172.141V172.745C205.4 172.851 205.486 172.937 205.592 172.937Z" fill="#3F3D56"/>
<path d="M202.302 172.937H203.563C203.669 172.937 203.755 172.851 203.755 172.745V172.141C203.755 172.035 203.669 171.95 203.563 171.95H202.302C202.196 171.95 202.11 172.035 202.11 172.141V172.745C202.11 172.851 202.196 172.937 202.302 172.937Z" fill="#3F3D56"/>
<path d="M199.012 172.937H200.274C200.38 172.937 200.465 172.851 200.465 172.745V172.141C200.465 172.035 200.38 171.95 200.274 171.95H199.012C198.906 171.95 198.82 172.035 198.82 172.141V172.745C198.82 172.851 198.906 172.937 199.012 172.937Z" fill="#3F3D56"/>
<path d="M195.722 172.937H196.984C197.09 172.937 197.176 172.851 197.176 172.745V172.141C197.176 172.035 197.09 171.95 196.984 171.95H195.722C195.616 171.95 195.531 172.035 195.531 172.141V172.745C195.531 172.851 195.616 172.937 195.722 172.937Z" fill="#3F3D56"/>
<path d="M217.764 174.91H230.54C230.646 174.91 230.732 174.824 230.732 174.718V174.115C230.732 174.009 230.646 173.923 230.54 173.923H217.764C217.658 173.923 217.572 174.009 217.572 174.115V174.718C217.572 174.824 217.658 174.91 217.764 174.91Z" fill="#3F3D56"/>
<path d="M204.229 141.644H203.112C202.773 141.644 202.499 141.918 202.499 142.257C202.499 142.595 202.773 142.87 203.112 142.87H204.229C204.567 142.87 204.842 142.595 204.842 142.257C204.842 141.918 204.567 141.644 204.229 141.644Z" fill="white"/>
<path d="M217.001 141.644H215.884C215.546 141.644 215.271 141.918 215.271 142.257C215.271 142.595 215.546 142.87 215.884 142.87H217.001C217.34 142.87 217.614 142.595 217.614 142.257C217.614 141.918 217.34 141.644 217.001 141.644Z" fill="white"/>
<path d="M220.62 141.644H219.503C219.164 141.644 218.89 141.918 218.89 142.257C218.89 142.595 219.164 142.87 219.503 142.87H220.62C220.958 142.87 221.233 142.595 221.233 142.257C221.233 141.918 220.958 141.644 220.62 141.644Z" fill="white"/>
<path d="M213.527 141.541H206.586C206.247 141.541 205.973 141.815 205.973 142.154C205.973 142.493 206.247 142.767 206.586 142.767H213.527C213.865 142.767 214.14 142.493 214.14 142.154C214.14 141.815 213.865 141.541 213.527 141.541Z" fill="white"/>
<path d="M230.557 141.541H223.616C223.277 141.541 223.003 141.815 223.003 142.154C223.003 142.493 223.277 142.767 223.616 142.767H230.557C230.895 142.767 231.17 142.493 231.17 142.154C231.17 141.815 230.895 141.541 230.557 141.541Z" fill="white"/>
<path d="M207.635 144.411H206.518C206.179 144.411 205.905 144.686 205.905 145.024C205.905 145.363 206.179 145.637 206.518 145.637H207.635C207.973 145.637 208.248 145.363 208.248 145.024C208.248 144.686 207.973 144.411 207.635 144.411Z" fill="white"/>
<path d="M220.407 144.411H219.29C218.952 144.411 218.677 144.686 218.677 145.024C218.677 145.363 218.952 145.637 219.29 145.637H220.407C220.746 145.637 221.02 145.363 221.02 145.024C221.02 144.686 220.746 144.411 220.407 144.411Z" fill="white"/>
<path d="M224.026 144.411H222.909C222.57 144.411 222.296 144.686 222.296 145.024C222.296 145.363 222.57 145.637 222.909 145.637H224.026C224.364 145.637 224.639 145.363 224.639 145.024C224.639 144.686 224.364 144.411 224.026 144.411Z" fill="white"/>
<path d="M216.933 144.309H209.992C209.653 144.309 209.379 144.583 209.379 144.922C209.379 145.26 209.653 145.535 209.992 145.535H216.933C217.271 145.535 217.546 145.26 217.546 144.922C217.546 144.583 217.271 144.309 216.933 144.309Z" fill="white"/>
<path d="M233.963 144.309H227.022C226.683 144.309 226.409 144.583 226.409 144.922C226.409 145.26 226.683 145.535 227.022 145.535H233.963C234.301 145.535 234.576 145.26 234.576 144.922C234.576 144.583 234.301 144.309 233.963 144.309Z" fill="white"/>
<path d="M211.04 147.178H209.924C209.585 147.178 209.311 147.452 209.311 147.791C209.311 148.129 209.585 148.404 209.924 148.404H211.04C211.379 148.404 211.654 148.129 211.654 147.791C211.654 147.452 211.379 147.178 211.04 147.178Z" fill="white"/>
<path d="M223.813 147.178H222.696C222.358 147.178 222.083 147.452 222.083 147.791C222.083 148.129 222.358 148.404 222.696 148.404H223.813C224.151 148.404 224.426 148.129 224.426 147.791C224.426 147.452 224.151 147.178 223.813 147.178Z" fill="white"/>
<path d="M227.432 147.178H226.315C225.976 147.178 225.702 147.452 225.702 147.791C225.702 148.129 225.976 148.404 226.315 148.404H227.432C227.77 148.404 228.045 148.129 228.045 147.791C228.045 147.452 227.77 147.178 227.432 147.178Z" fill="white"/>
<path d="M220.339 147.076H213.398C213.059 147.076 212.785 147.351 212.785 147.689C212.785 148.028 213.059 148.302 213.398 148.302H220.339C220.677 148.302 220.952 148.028 220.952 147.689C220.952 147.351 220.677 147.076 220.339 147.076Z" fill="white"/>
<path d="M237.369 147.076H230.428C230.089 147.076 229.815 147.351 229.815 147.689C229.815 148.028 230.089 148.302 230.428 148.302H237.369C237.707 148.302 237.982 148.028 237.982 147.689C237.982 147.351 237.707 147.076 237.369 147.076Z" fill="white"/>
<path d="M214.446 149.945H213.33C212.991 149.945 212.717 150.22 212.717 150.558C212.717 150.897 212.991 151.171 213.33 151.171H214.446C214.785 151.171 215.06 150.897 215.06 150.558C215.06 150.22 214.785 149.945 214.446 149.945Z" fill="white"/>
<path d="M227.219 149.945H226.102C225.764 149.945 225.489 150.22 225.489 150.558C225.489 150.897 225.764 151.171 226.102 151.171H227.219C227.558 151.171 227.832 150.897 227.832 150.558C227.832 150.22 227.558 149.945 227.219 149.945Z" fill="white"/>
<path d="M230.838 149.945H229.721C229.382 149.945 229.108 150.22 229.108 150.558C229.108 150.897 229.382 151.171 229.721 151.171H230.838C231.176 151.171 231.451 150.897 231.451 150.558C231.451 150.22 231.176 149.945 230.838 149.945Z" fill="white"/>
<path d="M223.745 149.843H216.804C216.465 149.843 216.191 150.117 216.191 150.456C216.191 150.794 216.465 151.069 216.804 151.069H223.745C224.083 151.069 224.358 150.794 224.358 150.456C224.358 150.117 224.083 149.843 223.745 149.843Z" fill="white"/>
<path d="M217.001 160.949H215.884C215.546 160.949 215.271 161.224 215.271 161.562C215.271 161.901 215.546 162.175 215.884 162.175H217.001C217.34 162.175 217.614 161.901 217.614 161.562C217.614 161.224 217.34 160.949 217.001 160.949Z" fill="white"/>
<path d="M220.62 160.949H219.503C219.164 160.949 218.89 161.224 218.89 161.562C218.89 161.901 219.164 162.175 219.503 162.175H220.62C220.958 162.175 221.233 161.901 221.233 161.562C221.233 161.224 220.958 160.949 220.62 160.949Z" fill="white"/>
<path d="M230.557 161.052H223.616C223.277 161.052 223.003 161.326 223.003 161.665C223.003 162.003 223.277 162.278 223.616 162.278H230.557C230.895 162.278 231.17 162.003 231.17 161.665C231.17 161.326 230.895 161.052 230.557 161.052Z" fill="white"/>
<path d="M204.229 160.949H203.112C202.773 160.949 202.499 161.224 202.499 161.562C202.499 161.901 202.773 162.175 203.112 162.175H204.229C204.567 162.175 204.842 161.901 204.842 161.562C204.842 161.224 204.567 160.949 204.229 160.949Z" fill="white"/>
<path d="M213.527 161.052H206.586C206.247 161.052 205.973 161.326 205.973 161.665C205.973 162.003 206.247 162.278 206.586 162.278H213.527C213.865 162.278 214.14 162.003 214.14 161.665C214.14 161.326 213.865 161.052 213.527 161.052Z" fill="white"/>
<path d="M207.635 158.183H206.518C206.179 158.183 205.905 158.457 205.905 158.796C205.905 159.134 206.179 159.409 206.518 159.409H207.635C207.973 159.409 208.248 159.134 208.248 158.796C208.248 158.457 207.973 158.183 207.635 158.183Z" fill="white"/>
<path d="M220.407 158.183H219.29C218.952 158.183 218.677 158.457 218.677 158.796C218.677 159.134 218.952 159.409 219.29 159.409H220.407C220.746 159.409 221.02 159.134 221.02 158.796C221.02 158.457 220.746 158.183 220.407 158.183Z" fill="white"/>
<path d="M224.026 158.183H222.909C222.57 158.183 222.296 158.457 222.296 158.796C222.296 159.134 222.57 159.409 222.909 159.409H224.026C224.364 159.409 224.639 159.134 224.639 158.796C224.639 158.457 224.364 158.183 224.026 158.183Z" fill="white"/>
<path d="M216.933 158.284H209.992C209.653 158.284 209.379 158.559 209.379 158.897C209.379 159.236 209.653 159.51 209.992 159.51H216.933C217.271 159.51 217.546 159.236 217.546 158.897C217.546 158.559 217.271 158.284 216.933 158.284Z" fill="white"/>
<path d="M211.04 155.415H209.924C209.585 155.415 209.311 155.69 209.311 156.028C209.311 156.367 209.585 156.641 209.924 156.641H211.04C211.379 156.641 211.654 156.367 211.654 156.028C211.654 155.69 211.379 155.415 211.04 155.415Z" fill="white"/>
<path d="M223.813 155.415H222.696C222.358 155.415 222.083 155.69 222.083 156.028C222.083 156.367 222.358 156.641 222.696 156.641H223.813C224.151 156.641 224.426 156.367 224.426 156.028C224.426 155.69 224.151 155.415 223.813 155.415Z" fill="white"/>
<path d="M227.432 155.415H226.315C225.976 155.415 225.702 155.69 225.702 156.028C225.702 156.367 225.976 156.641 226.315 156.641H227.432C227.77 156.641 228.045 156.367 228.045 156.028C228.045 155.69 227.77 155.415 227.432 155.415Z" fill="white"/>
<path d="M220.339 155.518H213.398C213.059 155.518 212.785 155.792 212.785 156.131C212.785 156.469 213.059 156.744 213.398 156.744H220.339C220.677 156.744 220.952 156.469 220.952 156.131C220.952 155.792 220.677 155.518 220.339 155.518Z" fill="white"/>
<path d="M214.446 152.647H213.33C212.991 152.647 212.717 152.922 212.717 153.261C212.717 153.599 212.991 153.874 213.33 153.874H214.446C214.785 153.874 215.06 153.599 215.06 153.261C215.06 152.922 214.785 152.647 214.446 152.647Z" fill="white"/>
<path d="M227.219 152.647H226.102C225.764 152.647 225.489 152.922 225.489 153.261C225.489 153.599 225.764 153.874 226.102 153.874H227.219C227.558 153.874 227.832 153.599 227.832 153.261C227.832 152.922 227.558 152.647 227.219 152.647Z" fill="white"/>
<path d="M230.838 152.647H229.721C229.382 152.647 229.108 152.922 229.108 153.261C229.108 153.599 229.382 153.874 229.721 153.874H230.838C231.176 153.874 231.451 153.599 231.451 153.261C231.451 152.922 231.176 152.647 230.838 152.647Z" fill="white"/>
<path d="M223.745 152.749H216.804C216.465 152.749 216.191 153.024 216.191 153.362C216.191 153.701 216.465 153.975 216.804 153.975H223.745C224.083 153.975 224.358 153.701 224.358 153.362C224.358 153.024 224.083 152.749 223.745 152.749Z" fill="white"/>
<path d="M198.291 193.383L193.049 185.096L209.504 171.978L216.297 164.453C217.179 163.475 218.303 162.746 219.555 162.339C220.807 161.931 222.145 161.86 223.433 162.131C224.722 162.403 225.917 163.008 226.899 163.886C227.88 164.763 228.615 165.884 229.028 167.134C229.64 168.987 229.508 171.006 228.661 172.764C227.813 174.521 226.315 175.881 224.484 176.556L213.743 180.513L198.291 193.383Z" fill="#FFB6B6"/>
<path d="M75.2805 133.295V173.573H103.497V133.295C103.498 133.006 103.405 132.724 103.234 132.49C103.062 132.257 102.82 132.085 102.543 131.999C102.413 131.956 102.276 131.935 102.139 131.937H76.6433C76.4645 131.936 76.2875 131.971 76.1223 132.039C75.957 132.107 75.8068 132.207 75.6803 132.334C75.5537 132.46 75.4533 132.61 75.3847 132.775C75.3161 132.94 75.2807 133.117 75.2805 133.295ZM86.2924 147.135C86.2998 146.341 86.6203 145.582 87.1844 145.023C87.7485 144.464 88.5105 144.151 89.3045 144.151C90.0986 144.151 90.8606 144.464 91.4247 145.023C91.9887 145.582 92.3094 146.341 92.3167 147.135V151.808C92.3127 152.604 91.9935 153.367 91.4291 153.928C90.8646 154.49 90.1008 154.805 89.3045 154.805C88.5083 154.805 87.7445 154.49 87.1801 153.928C86.6156 153.367 86.2965 152.604 86.2924 151.808V147.135Z" fill="#2F2E41"/>
<path d="M75.1942 172.284V176.168C75.1948 176.369 75.2747 176.562 75.4166 176.705C75.5585 176.847 75.7509 176.928 75.9521 176.93H102.826C103.027 176.929 103.22 176.848 103.362 176.706C103.504 176.563 103.584 176.37 103.584 176.168V172.284H75.1942Z" fill="#3F3D56"/>
<path d="M30.8914 72.6126V146.153C30.8921 147.09 31.2647 147.989 31.9274 148.652C32.5901 149.314 33.4887 149.687 34.4258 149.688H143.406C144.343 149.687 145.241 149.314 145.904 148.652C146.567 147.989 146.939 147.09 146.94 146.153V72.6126C146.938 71.6762 146.565 70.7789 145.902 70.1172C145.24 69.4554 144.342 69.0832 143.406 69.082H34.4258C33.4895 69.0832 32.5918 69.4555 31.9293 70.1172C31.2668 70.7789 30.8936 71.6762 30.8914 72.6126Z" fill="#3F3D56"/>
<path d="M33.448 73.5277V145.246C33.4489 145.747 33.6481 146.227 34.0022 146.581C34.3563 146.935 34.8363 147.134 35.337 147.135H142.499C142.999 147.134 143.479 146.935 143.833 146.581C144.187 146.227 144.387 145.747 144.387 145.246V73.5277C144.387 73.0263 144.189 72.5455 143.834 72.1906C143.48 71.8358 143 71.6359 142.499 71.6348H35.337C34.8356 71.6359 34.3552 71.8358 34.0011 72.1906C33.647 72.5455 33.448 73.0263 33.448 73.5277Z" fill="white"/>
<path d="M53.3353 176.667C53.4444 176.804 53.583 176.914 53.7408 176.99C53.8986 177.065 54.0715 177.104 54.2464 177.103H118.001C118.175 177.103 118.347 177.064 118.504 176.989C118.662 176.914 118.8 176.804 118.91 176.669C119.02 176.533 119.098 176.375 119.139 176.206C119.18 176.036 119.183 175.86 119.147 175.689L118.158 170.988C118.117 170.797 118.028 170.618 117.901 170.469C117.773 170.321 117.61 170.206 117.427 170.136C117.295 170.084 117.153 170.057 117.011 170.058H55.2321C55.0897 170.057 54.9485 170.084 54.8159 170.136C54.6327 170.206 54.4699 170.321 54.3423 170.469C54.2147 170.618 54.1264 170.797 54.0854 170.988L53.0957 175.689C53.0605 175.86 53.0638 176.036 53.1052 176.205C53.1466 176.374 53.2252 176.532 53.3353 176.667Z" fill="#2F2E41"/>
<path d="M139.021 81.5143H38.7502C38.6459 81.512 38.5468 81.469 38.4739 81.3944C38.401 81.3199 38.3602 81.2198 38.3602 81.1155C38.3602 81.0113 38.401 80.9112 38.4739 80.8367C38.5468 80.7621 38.6459 80.7191 38.7502 80.7168H139.021C139.125 80.7191 139.224 80.7621 139.297 80.8367C139.37 80.9112 139.411 81.0113 139.411 81.1155C139.411 81.2198 139.37 81.3199 139.297 81.3944C139.224 81.469 139.125 81.512 139.021 81.5143Z" fill="#3F3D56"/>
<path d="M45.5757 78.6812C46.8663 78.6812 47.9125 77.6116 47.9125 76.2923C47.9125 74.9729 46.8663 73.9033 45.5757 73.9033C44.2851 73.9033 43.2388 74.9729 43.2388 76.2923C43.2388 77.6116 44.2851 78.6812 45.5757 78.6812Z" fill="#3F3D56"/>
<path d="M53.6484 78.6812C54.939 78.6812 55.9853 77.6116 55.9853 76.2923C55.9853 74.9729 54.939 73.9033 53.6484 73.9033C52.3578 73.9033 51.3116 74.9729 51.3116 76.2923C51.3116 77.6116 52.3578 78.6812 53.6484 78.6812Z" fill="#3F3D56"/>
<path d="M61.7212 78.6812C63.0118 78.6812 64.058 77.6116 64.058 76.2923C64.058 74.9729 63.0118 73.9033 61.7212 73.9033C60.4306 73.9033 59.3843 74.9729 59.3843 76.2923C59.3843 77.6116 60.4306 78.6812 61.7212 78.6812Z" fill="#3F3D56"/>
<path d="M134.16 74.4941H128.426C128.313 74.4968 128.205 74.5437 128.125 74.6248C128.046 74.7058 128.002 74.8147 128.002 74.9281C128.002 75.0415 128.046 75.1503 128.125 75.2314C128.205 75.3125 128.313 75.3594 128.426 75.362H134.16C134.274 75.3604 134.382 75.314 134.463 75.2328C134.543 75.1516 134.587 75.0421 134.587 74.9281C134.587 74.814 134.543 74.7046 134.463 74.6234C134.382 74.5422 134.274 74.4957 134.16 74.4941Z" fill="#3F3D56"/>
<path d="M134.16 76.123H128.426C128.312 76.1256 128.205 76.1724 128.125 76.2535C128.046 76.3346 128.001 76.4435 128.001 76.557C128.001 76.6705 128.046 76.7794 128.125 76.8605C128.205 76.9416 128.312 76.9884 128.426 76.991H134.16C134.274 76.9896 134.383 76.9433 134.463 76.862C134.543 76.7808 134.588 76.6712 134.588 76.557C134.588 76.4428 134.543 76.3332 134.463 76.252C134.383 76.1707 134.274 76.1244 134.16 76.123Z" fill="#3F3D56"/>
<path d="M134.16 77.7539H128.426C128.313 77.7565 128.205 77.8034 128.125 77.8845C128.046 77.9656 128.002 78.0745 128.002 78.1879C128.002 78.3012 128.046 78.4101 128.125 78.4912C128.205 78.5723 128.313 78.6192 128.426 78.6218H134.16C134.274 78.6202 134.382 78.5738 134.463 78.4926C134.543 78.4114 134.587 78.3019 134.587 78.1879C134.587 78.0738 134.543 77.9644 134.463 77.8832C134.382 77.8019 134.274 77.7555 134.16 77.7539Z" fill="#3F3D56"/>
<path d="M272.389 173.99C272.562 174.493 272.89 174.929 273.326 175.235C273.763 175.54 274.285 175.7 274.817 175.69L285.221 175.423C285.758 175.412 286.276 175.228 286.7 174.899C287.123 174.569 287.428 174.111 287.57 173.594L289.042 157.851C289.564 158.087 290.133 158.204 290.706 158.193C291.205 158.18 291.695 158.07 292.151 157.868C292.606 157.665 293.017 157.375 293.361 157.014C293.704 156.653 293.973 156.228 294.152 155.763C294.331 155.298 294.417 154.803 294.404 154.304C294.392 153.806 294.281 153.316 294.079 152.86C293.877 152.405 293.587 151.994 293.226 151.65C292.865 151.307 292.44 151.038 291.975 150.859C291.51 150.68 291.014 150.594 290.516 150.607C290.287 150.606 290.058 150.63 289.834 150.678C289.59 150.414 289.294 150.204 288.965 150.062C288.635 149.92 288.279 149.848 287.92 149.852L271.917 150.265C271.784 150.27 271.652 150.286 271.522 150.314C271.171 150.379 270.838 150.519 270.546 150.724C270.253 150.929 270.008 151.194 269.827 151.502C269.645 151.809 269.532 152.152 269.494 152.507C269.457 152.862 269.495 153.221 269.608 153.56L272.389 173.99ZM289.344 156.782L290.392 153.03C290.511 152.597 290.514 152.14 290.4 151.705C290.451 151.705 290.495 151.681 290.546 151.681C291.265 151.666 291.959 151.936 292.479 152.433C292.998 152.93 293.299 153.612 293.315 154.33C293.332 155.049 293.064 155.744 292.568 156.265C292.073 156.785 291.392 157.088 290.673 157.107C290.209 157.121 289.749 157.009 289.344 156.782Z" fill="#2F2E41"/>
<path d="M271.522 150.314C271.863 152.264 275.696 153.634 280.305 153.396C284.544 153.201 288.009 151.713 288.644 149.949C288.409 149.879 288.165 149.847 287.92 149.852L271.917 150.265C271.784 150.27 271.652 150.287 271.522 150.314Z" fill="#3F3D56"/>
<path d="M281.15 165.339C281.171 165.333 281.191 165.325 281.209 165.313L283.469 163.834C283.496 163.816 283.518 163.792 283.534 163.763C283.549 163.734 283.558 163.702 283.558 163.67C283.558 163.637 283.55 163.605 283.534 163.576C283.519 163.548 283.496 163.523 283.469 163.505L281.12 161.967C281.099 161.953 281.075 161.943 281.049 161.938C281.024 161.933 280.998 161.933 280.973 161.939C280.947 161.944 280.923 161.954 280.902 161.969C280.88 161.983 280.862 162.002 280.848 162.023C280.834 162.045 280.824 162.069 280.819 162.094C280.814 162.12 280.815 162.146 280.82 162.171C280.825 162.197 280.836 162.22 280.85 162.242C280.865 162.263 280.884 162.281 280.905 162.295L283.003 163.669L280.994 164.984C280.955 165.009 280.927 165.048 280.914 165.092C280.9 165.137 280.903 165.185 280.922 165.227C280.941 165.27 280.974 165.304 281.016 165.325C281.057 165.345 281.105 165.35 281.15 165.339Z" fill="#04A7EC"/>
<path d="M277.581 165.503C277.619 165.494 277.654 165.473 277.68 165.444C277.706 165.415 277.722 165.378 277.728 165.34C277.733 165.301 277.727 165.261 277.709 165.226C277.692 165.191 277.665 165.162 277.631 165.143L275.548 163.949L277.561 162.453C277.582 162.438 277.599 162.419 277.613 162.397C277.626 162.374 277.635 162.35 277.638 162.324C277.642 162.299 277.641 162.273 277.635 162.248C277.628 162.223 277.617 162.199 277.602 162.179C277.586 162.158 277.567 162.141 277.545 162.127C277.523 162.114 277.498 162.105 277.473 162.102C277.447 162.098 277.421 162.099 277.396 162.106C277.371 162.112 277.348 162.123 277.327 162.138L275.074 163.812C275.047 163.832 275.026 163.857 275.013 163.887C274.999 163.916 274.993 163.949 274.995 163.982C274.996 164.014 275.006 164.046 275.024 164.073C275.041 164.101 275.065 164.124 275.093 164.14L277.436 165.483C277.48 165.509 277.532 165.516 277.581 165.503Z" fill="#04A7EC"/>
<path d="M280.925 166.635C280.944 166.63 280.962 166.622 280.979 166.612C281.001 166.599 281.02 166.581 281.036 166.56C281.051 166.539 281.062 166.516 281.068 166.491C281.074 166.466 281.075 166.44 281.071 166.414C281.067 166.389 281.058 166.364 281.045 166.342L277.842 161.076C277.815 161.032 277.771 161 277.721 160.988C277.67 160.976 277.617 160.984 277.572 161.011C277.528 161.038 277.496 161.082 277.484 161.132C277.471 161.183 277.48 161.236 277.507 161.281L280.709 166.547C280.731 166.582 280.764 166.61 280.803 166.626C280.842 166.642 280.885 166.645 280.925 166.635Z" fill="#04A7EC"/>
<path d="M100.866 103.192H83.5114C82.8034 103.192 82.2295 103.766 82.2295 104.474V106.17C82.2295 106.878 82.8034 107.452 83.5114 107.452H100.866C101.574 107.452 102.148 106.878 102.148 106.17V104.474C102.148 103.766 101.574 103.192 100.866 103.192Z" fill="#04A7EC"/>
<path d="M110.982 111.711H73.3956C72.6876 111.711 72.1136 112.285 72.1136 112.993V114.688C72.1136 115.396 72.6876 115.97 73.3956 115.97H110.982C111.69 115.97 112.264 115.396 112.264 114.688V112.993C112.264 112.285 111.69 111.711 110.982 111.711Z" fill="#E6E6E6"/>
<path d="M110.982 120.229H73.3956C72.6876 120.229 72.1136 120.803 72.1136 121.511V123.207C72.1136 123.915 72.6876 124.489 73.3956 124.489H110.982C111.69 124.489 112.264 123.915 112.264 123.207V121.511C112.264 120.803 111.69 120.229 110.982 120.229Z" fill="#E6E6E6"/>
<path d="M114.168 148.755L114.253 149.024L114.258 149.033L116.82 156.824L119.768 165.802L125.314 182.674L125.368 185.294V185.303L125.78 206.386L124.638 209.244L125.924 213.931C125.924 213.931 125.332 206.847 122.16 210.915C120.364 213.227 118.263 215.592 116.538 217.81C119.051 218.827 121.605 219.747 124.199 220.569C124.759 220.749 125.323 220.919 125.888 221.089C126.009 221.125 126.13 221.161 126.251 221.197C134.849 223.739 143.739 225.168 152.701 225.448C153.167 225.462 153.624 225.471 154.067 225.48C154.224 225.484 154.376 225.488 154.529 225.488C155.03 225.493 155.528 225.497 156.029 225.497C157.042 225.497 158.05 225.482 159.053 225.453C166.481 225.243 173.865 224.245 181.082 222.473C181.032 219.494 180.898 216.013 180.705 212.295C180.616 210.471 178.604 208.496 178.483 206.587C178.398 205.154 180.204 203.805 180.11 202.349C179.5 193.385 178.739 196.826 178.174 190.478C178.116 189.855 178.062 189.259 178.013 188.69C177.65 184.613 177.399 182.064 177.399 182.064L179.809 166.872L183.595 143.021L183.304 142.541L182.977 142.38L163.009 132.497L161.925 129.72C161.609 128.919 161.061 128.232 160.351 127.746C159.642 127.26 158.803 126.997 157.942 126.991L144.789 126.938C144.106 126.934 143.433 127.094 142.824 127.404C142.216 127.713 141.69 128.163 141.29 128.716L137.729 133.649L114.168 148.755Z" fill="#3F3D56"/>
<path d="M128.347 178.919L125.368 185.295L123.334 189.649L119.835 207.968L118.084 209.827L116.583 203.245L100.875 206.733C100.36 203.87 100.737 206.83 100.419 203.69C100.509 203.6 100.603 203.51 100.697 203.421C100.948 203.188 101.158 202.968 101.154 202.758C100.974 191.925 101.512 173.49 106.001 162.321C106.704 160.497 107.631 158.768 108.761 157.173C108.85 157.053 108.935 156.932 109.021 156.811C111.09 153.912 112.399 151.058 114.253 149.029V149.024C114.265 149.015 114.275 149.004 114.285 148.993C114.291 148.99 114.297 148.985 114.303 148.98L127.044 142.224L127.59 157.581L127.98 168.62L128.347 178.919Z" fill="#3F3D56"/>
<path d="M174.29 180.73L178.011 188.692L179.31 191.465L182.808 209.782L184.554 211.637L186.058 205.057L186.765 204.912L199.512 202.272L203.227 214.072C204.065 212.676 204.395 211.035 204.161 209.424C203.928 207.814 203.146 206.333 201.947 205.233C201.693 205.004 201.482 204.78 201.488 204.569C201.699 191.828 200.92 168.563 193.882 158.987C191.646 155.949 190.305 152.922 188.354 150.807C188.348 150.801 188.348 150.795 188.342 150.795L183.593 143.02L183.303 142.543L182.977 142.38L174.29 180.73Z" fill="#3F3D56"/>
<path d="M151.746 123.194C161.41 123.194 169.245 115.36 169.245 105.695C169.245 96.0308 161.41 88.1963 151.746 88.1963C142.081 88.1963 134.247 96.0308 134.247 105.695C134.247 115.36 142.081 123.194 151.746 123.194Z" fill="#FFB6B6"/>
<path d="M175.398 93.4727C175.262 93.3278 175.098 93.2117 174.917 93.1314C174.735 93.0511 174.54 93.0083 174.341 93.0054L174.604 92.2749C174.69 92.0448 174.713 91.796 174.671 91.5541C174.63 91.3121 174.524 91.0856 174.366 90.8978C174.208 90.71 174.002 90.5676 173.771 90.4852C173.539 90.4029 173.29 90.3835 173.049 90.4291L172.091 90.6137L172.181 89.9736C172.216 89.7352 172.188 89.4918 172.1 89.2675C172.012 89.0432 171.867 88.8457 171.68 88.6943C171.492 88.5429 171.269 88.443 171.031 88.4042C170.793 88.3655 170.549 88.3893 170.324 88.4734C170.118 88.5542 169.897 88.5881 169.677 88.5724C169.457 88.5568 169.243 88.4921 169.051 88.3831C168.858 88.2773 168.691 88.1309 168.561 87.9538C168.431 87.7768 168.341 87.5735 168.297 87.358L167.963 85.7479L167.928 85.6615C166.302 82.9517 163.176 80.9803 159.351 80.2577C155.946 79.6097 152.455 79.9396 149.089 80.2498C147.754 80.3755 146.246 80.5168 144.989 81.2866C143.921 81.9463 143.018 83.2659 143.202 84.5972C139.884 83.5801 136.326 85.6104 134.563 88.171C132.473 91.2185 132.132 95.0357 132.077 98.0204C131.927 105.081 133.384 110.858 136.397 115.194C136.616 115.508 136.671 116.164 137.107 116.384L137.017 116.239C137.504 116.482 137.999 116.875 137.814 117.295C137.284 118.505 140.807 121.179 143.289 122.063C147.817 123.677 153.837 123.539 158.071 122.958L158.22 121.957C159.748 121.749 160.824 121.352 161.126 120.731C161.66 120.276 162.116 119.867 162.512 119.49L162.516 119.486C162.524 119.479 162.54 119.467 162.548 119.459C164.46 117.625 164.904 116.58 165.104 114.99C165.297 113.431 164.955 111.848 164.606 110.423C171.965 111.561 161.707 102.584 168.564 100.848C168.643 100.824 168.723 100.804 168.804 100.789C169.004 100.742 169.204 100.695 169.397 100.64C170.324 100.388 171.213 100.009 172.036 99.5127C173.952 98.3464 174.585 96.799 175.574 95.0554C175.717 94.8071 175.777 94.5197 175.745 94.2351C175.713 93.9504 175.592 93.6834 175.398 93.4727Z" fill="#2F2E41"/>
<path d="M213.637 181.976C213.633 182.663 213.625 183.625 213.593 184.815C213.59 184.98 213.586 185.149 213.582 185.322C213.531 187.509 213.48 189.343 213.397 191.381C213.393 191.523 213.389 191.66 213.381 191.802C213.271 194.645 213.099 197.955 212.8 203.198C212.246 212.883 211.28 204.53 210.31 207.927C210.263 208.095 210.212 208.296 210.165 208.531C210.018 209.386 209.77 210.221 209.427 211.017C208.912 211.324 208.382 211.618 207.86 211.913C206.371 212.741 204.859 213.539 203.336 214.297C202.479 214.721 201.619 215.137 200.755 215.538C200.618 215.6 200.484 215.663 200.351 215.722C195.927 217.769 191.367 219.508 186.704 220.93C185.793 221.204 184.886 221.472 183.967 221.719C183.008 221.986 182.05 222.237 181.08 222.473C173.864 224.245 166.48 225.244 159.053 225.454C158.051 225.485 157.042 225.497 156.029 225.497C155.526 225.497 155.031 225.493 154.528 225.489C154.375 225.489 154.222 225.485 154.069 225.481C153.625 225.469 153.166 225.462 152.702 225.45C143.74 225.17 134.851 223.741 126.253 221.197L125.887 221.091C125.322 220.918 124.76 220.749 124.199 220.568C121.607 219.747 119.053 218.829 116.537 217.811C114.616 217.038 112.718 216.208 110.842 215.322C110.825 215.317 110.809 215.309 110.795 215.298C110.402 215.117 110.006 214.929 109.613 214.736C109.562 214.709 109.507 214.681 109.452 214.654C107.987 213.939 106.538 213.19 105.105 212.408C103.899 209.639 102.202 209.109 101.15 206.674C100.844 205.95 100.622 205.194 100.49 204.42C100.49 204.412 100.486 204.404 100.486 204.392C100.596 205.853 100.019 201.8 100.482 204.376C100.478 204.329 100.474 204.278 100.47 204.219C100.459 204.078 100.443 203.905 100.419 203.689C99.0724 190.537 99.1588 175.496 98.5737 163.102C98.5344 162.3 98.4938 161.533 98.4519 160.8C98.4401 160.557 98.4244 160.317 98.4087 160.082C98.4362 160.011 98.4676 159.936 98.5029 159.866C98.5105 159.845 98.5197 159.825 98.5304 159.807C98.542 159.782 98.5551 159.759 98.5697 159.736C98.5776 159.724 98.5893 159.708 98.5972 159.697C98.6029 159.683 98.6095 159.67 98.6168 159.657C98.6522 159.602 98.6914 159.544 98.7346 159.489C98.7543 159.465 98.77 159.445 98.7896 159.426C98.8032 159.406 98.819 159.387 98.8368 159.371C98.8488 159.352 98.8633 159.335 98.88 159.32C98.8957 159.304 98.9114 159.284 98.931 159.265C98.9394 159.252 98.9501 159.242 98.9624 159.233C98.9935 159.198 99.0276 159.165 99.0645 159.135C99.2046 159.006 99.3543 158.888 99.5122 158.782C99.5672 158.746 99.6261 158.711 99.6811 158.672C100.077 158.435 100.494 158.235 100.926 158.075C101.075 158.02 101.224 157.969 101.386 157.914C101.444 157.898 101.499 157.878 101.558 157.859C101.645 157.831 101.731 157.804 101.821 157.784C102.269 157.651 102.752 157.537 103.274 157.431C103.337 157.419 103.404 157.407 103.471 157.391C103.565 157.372 103.663 157.356 103.761 157.34C103.895 157.317 104.032 157.293 104.17 157.27C105.336 157.085 106.66 156.948 108.121 156.857C108.258 156.849 108.396 156.842 108.533 156.834C108.694 156.826 108.855 156.818 109.02 156.81C109.157 156.802 109.299 156.798 109.44 156.794C109.578 156.787 109.719 156.783 109.864 156.779C110.261 156.767 110.669 156.755 111.086 156.747C112.272 156.724 113.521 156.732 114.832 156.759C115.441 156.775 116.061 156.791 116.698 156.818C116.741 156.818 116.78 156.822 116.819 156.822C117.373 156.842 117.931 156.865 118.504 156.897C118.905 156.916 119.309 156.936 119.714 156.959C120.095 156.983 120.48 157.007 120.868 157.034C121.171 157.05 121.473 157.073 121.779 157.093C122.039 157.113 122.298 157.132 122.557 157.148L122.91 157.171C123.103 157.187 123.295 157.199 123.492 157.219C123.924 157.254 124.356 157.289 124.796 157.325C125.231 157.364 125.675 157.403 126.119 157.442C126.563 157.482 127.01 157.525 127.458 157.568C127.505 157.572 127.549 157.576 127.592 157.58C128 157.623 128.409 157.662 128.821 157.706C128.915 157.713 129.013 157.721 129.108 157.733C129.501 157.773 129.902 157.819 130.298 157.861C130.42 157.874 130.541 157.887 130.663 157.9C130.974 157.934 131.281 157.963 131.593 158C132.006 158.047 132.426 158.09 132.834 158.145C133.153 158.181 133.471 158.216 133.789 158.255C134.288 158.314 134.794 158.377 135.301 158.444C135.493 158.467 135.686 158.491 135.878 158.519C137.323 158.699 138.784 158.899 140.269 159.108C142.519 159.426 144.805 159.771 147.106 160.144C149.411 160.517 151.73 160.912 154.061 161.326C154.65 161.433 155.239 161.539 155.832 161.648C156.099 161.7 156.366 161.751 156.633 161.802C157.089 161.884 157.544 161.971 158 162.057C158.456 162.143 158.911 162.23 159.367 162.32C159.909 162.426 160.454 162.532 160.996 162.638C164.566 163.345 168.116 164.099 171.58 164.888C172.15 165.018 172.719 165.152 173.285 165.281C174.416 165.544 175.536 165.811 176.646 166.082C176.953 166.153 177.255 166.228 177.557 166.302C178.311 166.491 179.065 166.679 179.808 166.872L179.937 166.907C180.483 167.041 181.017 167.178 181.551 167.319C182.812 167.649 184.052 167.983 185.27 168.321C186.079 168.545 186.879 168.771 187.67 169C188.852 169.342 190.011 169.687 191.138 170.037C191.417 170.123 191.695 170.21 191.97 170.292C192.795 170.548 193.608 170.807 194.397 171.066C195.026 171.27 195.638 171.478 196.243 171.686C196.848 171.895 197.441 172.103 198.022 172.311C198.395 172.444 198.764 172.586 199.133 172.719C199.664 172.916 200.186 173.112 200.697 173.308C200.854 173.367 201.007 173.43 201.16 173.489C201.258 173.532 201.352 173.568 201.447 173.607C201.631 173.681 201.82 173.752 202 173.827C202.185 173.897 202.366 173.972 202.546 174.051C202.723 174.121 202.904 174.196 203.076 174.27C203.253 174.341 203.426 174.416 203.599 174.494C203.744 174.553 203.885 174.616 204.023 174.679C204.302 174.801 204.581 174.922 204.851 175.048C204.985 175.111 205.119 175.17 205.252 175.233L205.558 175.374C205.602 175.398 205.645 175.417 205.688 175.437C205.786 175.484 205.888 175.535 205.986 175.582C206.214 175.688 206.438 175.802 206.658 175.908C206.953 176.057 207.239 176.207 207.514 176.352C207.793 176.501 208.064 176.65 208.323 176.796C208.366 176.819 208.406 176.843 208.449 176.866C208.508 176.898 208.567 176.933 208.626 176.965C208.826 177.078 209.018 177.196 209.211 177.31C209.588 177.542 209.945 177.77 210.279 177.997C210.353 178.048 210.424 178.099 210.499 178.147C210.746 178.323 210.982 178.496 211.202 178.673C211.202 178.677 211.202 178.677 211.206 178.677C211.28 178.732 211.351 178.791 211.422 178.846C211.481 178.901 211.543 178.948 211.602 179.003C211.807 179.179 211.995 179.348 212.168 179.521C212.226 179.574 212.281 179.631 212.333 179.69C212.356 179.709 212.377 179.73 212.396 179.753C212.474 179.831 212.545 179.91 212.612 179.988C212.622 179.999 212.631 180.011 212.639 180.024C212.733 180.134 212.82 180.244 212.902 180.354C212.942 180.409 212.985 180.464 213.02 180.519C213.067 180.585 213.114 180.656 213.154 180.723C213.189 180.778 213.22 180.837 213.252 180.892C213.335 181.033 213.406 181.182 213.464 181.336C213.508 181.44 213.543 181.547 213.57 181.658C213.6 181.762 213.622 181.868 213.637 181.976Z" fill="#2F2E41"/>
<path opacity="0.2" d="M213.637 181.976C213.633 182.663 213.625 183.625 213.594 184.815C213.59 184.98 213.582 185.149 213.578 185.322C213.539 186.991 213.48 189.052 213.397 191.381C213.393 191.523 213.389 191.66 213.381 191.801C213.271 194.645 213.099 197.955 212.8 203.198C212.246 212.883 211.28 204.529 210.31 207.927C207.616 206.269 204.663 204.533 201.506 202.75C200.936 202.428 200.361 202.105 199.782 201.78C193.467 198.258 186.413 194.566 179.05 190.91C178.759 190.765 178.465 190.619 178.174 190.478C161.307 182.141 142.896 174.031 127.981 168.619C125.102 167.575 122.353 166.632 119.769 165.803C114.326 164.064 109.621 162.846 106 162.32C102.23 161.77 99.6262 161.966 98.5737 163.101C98.5344 162.3 98.4938 161.533 98.4519 160.8C98.4362 160.557 98.4205 160.317 98.4048 160.081C98.429 160.017 98.4605 159.955 98.491 159.893C98.4954 159.884 98.4985 159.874 98.503 159.865C98.5105 159.845 98.5197 159.825 98.5305 159.807C98.542 159.782 98.5552 159.759 98.5697 159.736C98.5825 159.708 98.5983 159.682 98.6169 159.657C98.6522 159.602 98.6915 159.543 98.7347 159.488C98.7664 159.447 98.8005 159.408 98.8368 159.371C98.8488 159.352 98.8634 159.335 98.88 159.32C98.8957 159.304 98.9114 159.284 98.931 159.265C98.9394 159.252 98.9501 159.242 98.9625 159.233C98.9935 159.197 99.0277 159.165 99.0646 159.135C99.2047 159.006 99.3543 158.888 99.5123 158.782C99.5672 158.746 99.6261 158.711 99.6811 158.672C100.077 158.435 100.494 158.235 100.926 158.075C101.075 158.02 101.225 157.969 101.386 157.914C101.444 157.898 101.499 157.878 101.558 157.859C101.645 157.831 101.731 157.804 101.821 157.784C102.269 157.651 102.752 157.537 103.275 157.431C103.432 157.399 103.597 157.368 103.761 157.34C103.895 157.317 104.032 157.293 104.17 157.27C105.336 157.085 106.66 156.948 108.121 156.857C108.258 156.849 108.396 156.841 108.533 156.834C108.694 156.826 108.855 156.818 109.02 156.81C109.157 156.802 109.299 156.798 109.44 156.794C109.578 156.787 109.719 156.783 109.864 156.779C110.261 156.767 110.669 156.755 111.086 156.747C112.272 156.728 113.521 156.735 114.832 156.763C115.441 156.775 116.061 156.794 116.698 156.822C116.737 156.822 116.78 156.826 116.819 156.826C117.373 156.841 117.935 156.869 118.504 156.896C118.905 156.916 119.309 156.936 119.714 156.959C120.095 156.983 120.48 157.006 120.868 157.034C121.171 157.05 121.473 157.073 121.779 157.093C122.039 157.112 122.298 157.132 122.557 157.148C122.867 157.171 123.178 157.195 123.492 157.219C123.924 157.254 124.356 157.289 124.796 157.325C125.231 157.364 125.675 157.403 126.119 157.442C126.563 157.482 127.01 157.525 127.458 157.568C127.505 157.572 127.549 157.576 127.592 157.58C128 157.623 128.409 157.662 128.821 157.705C131.107 157.937 133.459 158.208 135.878 158.518C137.323 158.703 138.787 158.901 140.269 159.111C142.519 159.43 144.805 159.775 147.106 160.144C149.411 160.517 151.73 160.911 154.061 161.326C154.65 161.432 155.239 161.538 155.832 161.648C156.555 161.782 157.277 161.918 158 162.057C158.456 162.143 158.911 162.23 159.367 162.32C159.909 162.426 160.455 162.532 160.997 162.638C164.566 163.345 168.116 164.099 171.58 164.888C172.15 165.018 172.719 165.151 173.285 165.281C174.416 165.544 175.536 165.811 176.646 166.082C176.953 166.157 177.255 166.231 177.558 166.306C178.315 166.495 179.066 166.683 179.808 166.872V166.875C179.851 166.883 179.894 166.895 179.937 166.907C180.479 167.044 181.017 167.182 181.551 167.323C182.812 167.653 184.052 167.986 185.271 168.321C186.08 168.548 186.881 168.772 187.67 169C188.852 169.346 190.011 169.691 191.138 170.037C191.417 170.123 191.695 170.21 191.97 170.292C192.795 170.551 193.604 170.809 194.397 171.066C195.026 171.27 195.638 171.478 196.243 171.686C196.848 171.894 197.441 172.103 198.022 172.311C198.399 172.444 198.768 172.582 199.134 172.715C199.668 172.912 200.186 173.108 200.697 173.308C200.854 173.367 201.007 173.43 201.16 173.489C201.447 173.599 201.725 173.713 202 173.827C202.185 173.897 202.366 173.972 202.546 174.05C202.723 174.121 202.904 174.196 203.076 174.27C203.253 174.341 203.426 174.416 203.599 174.494C203.744 174.553 203.885 174.616 204.023 174.679C204.302 174.801 204.581 174.922 204.852 175.048C204.985 175.111 205.119 175.17 205.252 175.233L205.558 175.374C205.602 175.398 205.645 175.417 205.688 175.437C206.022 175.594 206.344 175.751 206.658 175.908C206.953 176.057 207.239 176.207 207.514 176.352C207.84 176.525 208.15 176.693 208.449 176.866C208.508 176.898 208.567 176.933 208.626 176.964C208.826 177.078 209.018 177.196 209.211 177.31C209.588 177.542 209.945 177.77 210.279 177.997C210.609 178.225 210.915 178.449 211.202 178.673C211.202 178.677 211.202 178.677 211.206 178.677C211.343 178.787 211.477 178.897 211.602 179.003C211.807 179.179 211.995 179.348 212.168 179.521C212.226 179.574 212.281 179.631 212.333 179.69C212.356 179.709 212.377 179.73 212.396 179.753C212.478 179.843 212.561 179.933 212.639 180.024C212.733 180.134 212.82 180.244 212.902 180.354C212.942 180.409 212.985 180.464 213.02 180.519C213.067 180.585 213.114 180.656 213.154 180.723C213.189 180.778 213.22 180.837 213.252 180.892C213.335 181.033 213.406 181.182 213.464 181.335C213.507 181.44 213.542 181.548 213.57 181.657C213.6 181.762 213.622 181.868 213.637 181.976Z" fill="black"/>
</g>
<defs>
<clipPath id="clip0_787_8714">
<rect width="309" height="224.737" fill="white" transform="translate(0 0.759766)"/>
</clipPath>
</defs>
</svg>
