<svg width="24" height="25" viewBox="0 0 24 25" fill="none" xmlns="http://www.w3.org/2000/svg">
<g id="vuesax/bulk/apple">
<g id="apple">
<g id="Group 4">
<g id="Group">
<path id="Vector" fill-rule="evenodd" clip-rule="evenodd" d="M19.1 19.2436C19.69 18.3436 19.91 17.8836 20.36 16.8736C17.04 15.6136 16.51 10.8836 19.79 9.07357C18.79 7.81357 17.38 7.08357 16.05 7.08357C15.09 7.08357 14.43 7.33358 13.84 7.56358C13.34 7.75358 12.89 7.92357 12.33 7.92357C11.73 7.92357 11.2 7.73357 10.64 7.53357C10.04 7.31357 9.39995 7.08357 8.59995 7.08357C7.10995 7.08357 5.51996 7.99357 4.50996 9.55357C3.08996 11.7536 3.33995 15.8736 5.62995 19.3936C6.44995 20.6536 7.54996 22.0636 8.97996 22.0836C9.57996 22.0936 9.96996 21.9136 10.4 21.7236C10.89 21.5036 11.42 21.2636 12.35 21.2636C13.28 21.2536 13.8 21.5036 14.29 21.7236C14.71 21.9136 15.09 22.0936 15.68 22.0836C17.12 22.0636 18.28 20.5036 19.1 19.2436Z" fill="white"/>
</g>
<path id="Vector_2" opacity="0.4" fill-rule="evenodd" clip-rule="evenodd" d="M15.8399 2.08357C15.9999 3.18357 15.5499 4.27357 14.9599 5.03357C14.3299 5.85357 13.2299 6.49358 12.1699 6.45358C11.9799 5.39358 12.4699 4.30357 13.0699 3.57357C13.7399 2.77357 14.8699 2.15357 15.8399 2.08357Z" fill="white"/>
</g>
</g>
</g>
</svg>
