<svg width="22" height="23" viewBox="0 0 22 23" fill="none" xmlns="http://www.w3.org/2000/svg">
<g id="vuesax/bulk/google">
<g id="google">
<g id="Group 36">
<path id="Vector" d="M11.1833 5.4644C11.1192 5.4644 11.055 5.46441 11 5.47357V1.92606C11.0642 1.9169 11.1192 1.9169 11.1833 1.9169C13.255 1.9169 15.0333 2.5494 16.4908 3.6219C16.9492 3.9519 16.9858 4.62107 16.5825 5.01524L15.3083 6.26191C14.9967 6.56441 14.52 6.6194 14.1625 6.3719C13.475 5.89523 12.4942 5.4644 11.1833 5.4644Z" fill="#01001A"/>
<path id="Vector_2" d="M19.9833 11.2852C19.9833 14.081 18.9842 16.4277 17.2517 18.0318C15.7392 19.4343 13.6583 20.2502 11.1833 20.2502C11.1192 20.2502 11.0642 20.2502 11 20.241V16.6935C11.0642 16.7027 11.1192 16.7027 11.1833 16.7027C12.5492 16.7027 13.585 16.3268 14.3642 15.786C15.5833 14.9335 16.1333 13.6593 16.2342 12.816H12.1C11.5958 12.816 11.1833 12.4035 11.1833 11.8993V10.3318C11.1833 9.82766 11.5958 9.41516 12.1 9.41516H19.0208C19.4883 9.41516 19.8825 9.76351 19.9283 10.231C19.965 10.5518 19.9833 10.891 19.9833 11.2852Z" fill="#01001A"/>
<path id="Vector_3" opacity="0.4" d="M5.95827 9.26856C5.77494 9.8369 5.66494 10.4511 5.66494 11.0836C5.66494 11.7161 5.77494 12.3211 5.96744 12.8986C6.68244 15.0527 8.66244 16.6202 10.9999 16.6936V20.2411C7.49827 20.1769 4.48244 18.1419 3.0066 15.1994H2.99743C2.3741 13.9527 2.0166 12.5594 2.0166 11.0836C2.0166 9.60773 2.3741 8.21439 2.99743 6.96772C4.47327 4.02522 7.4891 1.99022 10.9999 1.92606V5.47357C8.8366 5.53773 6.9941 6.87606 6.15077 8.77356C6.07744 8.93856 6.01327 9.10356 5.95827 9.26856Z" fill="#01001A"/>
</g>
</g>
</g>
</svg>
