<svg width="93" height="92" viewBox="0 0 93 92" fill="none" xmlns="http://www.w3.org/2000/svg">
<g id="undraw_no_data_re_kwbl (2) 1" clip-path="url(#clip0_554_7300)">
<path id="Vector" d="M59.0403 21.1131H33.9809C33.4098 21.1138 32.8623 21.3409 32.4585 21.7447C32.0547 22.1485 31.8276 22.696 31.8269 23.2671V78.962L31.5397 79.0496L25.3922 80.9322C25.1008 81.021 24.7862 80.9906 24.5172 80.8476C24.2483 80.7047 24.047 80.4608 23.9577 80.1697L5.67171 20.4396C5.58272 20.1482 5.61305 19.8335 5.75603 19.5645C5.89902 19.2955 6.14295 19.0943 6.43423 19.005L15.9075 16.1043L43.3708 7.69804L52.844 4.79734C52.9882 4.75297 53.1397 4.73746 53.2899 4.75171C53.44 4.76596 53.5859 4.80968 53.7192 4.88037C53.8524 4.95106 53.9704 5.04734 54.0664 5.16368C54.1624 5.28003 54.2345 5.41417 54.2786 5.55841L58.9527 20.8259L59.0403 21.1131Z" fill="#F2F2F2"/>
<path id="Vector_2" d="M64.5086 20.8259L58.8752 2.42512C58.7815 2.11853 58.6283 1.83341 58.4243 1.58606C58.2204 1.3387 57.9697 1.13397 57.6866 0.98354C57.4034 0.833114 57.0935 0.739947 56.7743 0.709368C56.4552 0.678789 56.1332 0.711396 55.8266 0.805323L42.5078 4.8821L15.0459 13.2898L1.72713 17.368C1.10841 17.558 0.590342 17.9858 0.28665 18.5573C-0.0170418 19.1289 -0.0815502 19.7976 0.107287 20.4167L19.3611 83.303C19.5145 83.8028 19.824 84.2402 20.2442 84.5511C20.6645 84.862 21.1733 85.03 21.696 85.0305C21.938 85.0306 22.1785 84.9943 22.4097 84.9228L31.5397 82.1284L31.8269 82.0394V81.7392L31.5397 81.8268L22.325 84.6486C21.7788 84.815 21.189 84.7581 20.6848 84.4902C20.1805 84.2224 19.8031 83.7655 19.6354 83.2197L0.383057 20.3319C0.299925 20.0615 0.270952 19.7774 0.297795 19.4958C0.324637 19.2141 0.406765 18.9406 0.539483 18.6907C0.6722 18.4409 0.852899 18.2197 1.07123 18.0398C1.28955 17.8599 1.54122 17.7248 1.81183 17.6423L15.1306 13.5641L42.5926 5.15781L55.9114 1.0796C56.1166 1.01696 56.33 0.985024 56.5446 0.984824C57.0052 0.985858 57.4533 1.13433 57.8233 1.4085C58.1934 1.68267 58.4659 2.06813 58.601 2.50841L64.2085 20.8259L64.2976 21.1131H64.5963L64.5086 20.8259Z" fill="#C9C9C9"/>
<path id="Vector_3" d="M17.617 19.0521C17.3402 19.0519 17.0708 18.963 16.8482 18.7985C16.6257 18.6339 16.4617 18.4024 16.3804 18.1378L14.5308 12.0964C14.4811 11.9341 14.4638 11.7636 14.48 11.5947C14.4962 11.4257 14.5455 11.2616 14.6252 11.1117C14.7048 10.9618 14.8132 10.8291 14.9441 10.7211C15.075 10.6131 15.2259 10.5319 15.3882 10.4823L40.6529 2.74749C40.9807 2.64748 41.3347 2.68159 41.6373 2.84233C41.94 3.00308 42.1664 3.27732 42.2671 3.60488L44.1167 9.64642C44.2166 9.97417 44.1825 10.3282 44.0218 10.6308C43.861 10.9334 43.5868 11.1599 43.2593 11.2606L17.9945 18.9954C17.8722 19.0329 17.7449 19.052 17.617 19.0521Z" fill="#04A7EC"/>
<path id="Vector_4" d="M27.3058 7.15266C28.892 7.15266 30.1778 5.86683 30.1778 4.28067C30.1778 2.69452 28.892 1.40869 27.3058 1.40869C25.7197 1.40869 24.4338 2.69452 24.4338 4.28067C24.4338 5.86683 25.7197 7.15266 27.3058 7.15266Z" fill="#04A7EC"/>
<path id="Vector_5" d="M27.3059 6.09917C28.3103 6.09917 29.1246 5.28494 29.1246 4.28054C29.1246 3.27614 28.3103 2.46191 27.3059 2.46191C26.3015 2.46191 25.4873 3.27614 25.4873 4.28054C25.4873 5.28494 26.3015 6.09917 27.3059 6.09917Z" fill="white"/>
<path id="Vector_6" d="M86.5381 84.2968H38.0016C37.678 84.2965 37.3677 84.1677 37.1389 83.9389C36.9101 83.7101 36.7814 83.3998 36.781 83.0762V24.9186C36.7814 24.595 36.9101 24.2847 37.1389 24.0559C37.3677 23.8271 37.678 23.6984 38.0016 23.698H86.5381C86.8617 23.6984 87.172 23.8271 87.4008 24.0559C87.6296 24.2847 87.7583 24.595 87.7587 24.9186V83.0762C87.7583 83.3998 87.6296 83.7101 87.4008 83.9389C87.1719 84.1677 86.8617 84.2964 86.5381 84.2968Z" fill="#F3F3F3"/>
<path id="Vector_7" d="M64.2084 20.8259H33.9807C33.3336 20.8268 32.7132 21.0843 32.2556 21.5419C31.798 21.9996 31.5405 22.62 31.5396 23.2671V81.8268L31.8267 81.7392V23.2671C31.8274 22.6961 32.0546 22.1486 32.4584 21.7448C32.8622 21.341 33.4097 21.1138 33.9807 21.1131H64.2974L64.2084 20.8259ZM90.5588 20.8259H33.9807C33.3336 20.8268 32.7132 21.0843 32.2556 21.5419C31.798 21.9996 31.5405 22.62 31.5396 23.2671V89.0355C31.5405 89.6827 31.798 90.3031 32.2556 90.7607C32.7132 91.2183 33.3336 91.4758 33.9807 91.4767H90.5588C91.206 91.4758 91.8264 91.2183 92.284 90.7607C92.7416 90.3031 92.9991 89.6827 93 89.0355V23.2671C92.9991 22.62 92.7416 21.9996 92.284 21.5419C91.8264 21.0843 91.206 20.8268 90.5588 20.8259ZM92.7128 89.0355C92.7121 89.6066 92.4849 90.1541 92.0811 90.5578C91.6773 90.9616 91.1299 91.1888 90.5588 91.1895H33.9807C33.4097 91.1888 32.8622 90.9616 32.4584 90.5578C32.0546 90.1541 31.8274 89.6066 31.8267 89.0355V23.2671C31.8274 22.6961 32.0546 22.1486 32.4584 21.7448C32.8622 21.341 33.4097 21.1138 33.9807 21.1131H90.5588C91.1299 21.1138 91.6773 21.341 92.0811 21.7448C92.4849 22.1486 92.7121 22.6961 92.7128 23.2671V89.0355Z" fill="#C9C9C9"/>
<path id="Vector_8" d="M75.481 27.1444H49.0587C48.7161 27.144 48.3876 27.0077 48.1453 26.7654C47.903 26.5231 47.7667 26.1946 47.7664 25.852V19.5336C47.7667 19.191 47.903 18.8625 48.1453 18.6202C48.3876 18.3779 48.7161 18.2416 49.0587 18.2412H75.481C75.8236 18.2416 76.1521 18.3779 76.3944 18.6202C76.6367 18.8625 76.773 19.191 76.7734 19.5336V25.852C76.773 26.1946 76.6367 26.5231 76.3944 26.7654C76.1521 27.0077 75.8236 27.144 75.481 27.1444Z" fill="#04A7EC"/>
<path id="Vector_9" d="M62.2697 18.6719C63.8558 18.6719 65.1417 17.3861 65.1417 15.8C65.1417 14.2138 63.8558 12.928 62.2697 12.928C60.6835 12.928 59.3977 14.2138 59.3977 15.8C59.3977 17.3861 60.6835 18.6719 62.2697 18.6719Z" fill="#04A7EC"/>
<path id="Vector_10" d="M62.2698 17.5494C63.2359 17.5494 64.0191 16.7662 64.0191 15.8001C64.0191 14.834 63.2359 14.0508 62.2698 14.0508C61.3037 14.0508 60.5205 14.834 60.5205 15.8001C60.5205 16.7662 61.3037 17.5494 62.2698 17.5494Z" fill="white"/>
</g>
<defs>
<clipPath id="clip0_554_7300">
<rect width="93" height="90.7796" fill="white" transform="translate(0 0.697021)"/>
</clipPath>
</defs>
</svg>
